<svg width="512" height="512" viewBox="0 0 512 512" fill="none" xmlns="http://www.w3.org/2000/svg">
<g clip-path="url(#clip0_2_2)">
<rect width="512" height="512" fill="#262626"/>
<path fill-rule="evenodd" clip-rule="evenodd" d="M501 439.952V438.114C497.615 439.329 494.264 440.639 490.951 442.044C486.28 444.034 481.436 448.843 475.762 456.576C472.03 461.755 468.482 467.064 465.122 472.492C455.175 488.183 452.009 492.802 447.407 497.594C446.282 498.762 445.125 499.897 443.937 501H446.469C447.22 500.278 447.953 499.547 448.67 498.805C453.376 493.875 456.559 489.221 466.593 473.426C469.925 468.028 473.444 462.748 477.146 457.597C482.682 450.106 487.353 445.47 491.626 443.636C494.693 442.321 497.786 441.109 501 439.952ZM489.978 501H487.998C488.259 500.52 488.511 500.037 488.754 499.549C489.965 497.127 491.003 494.705 492.093 491.937C492.977 489.611 493.836 487.275 494.671 484.931C496.523 479.858 498.488 475.682 501 472.141V475.12C499.347 477.836 497.935 481.105 496.314 485.536L493.719 492.577C492.713 495.208 491.581 497.788 490.329 500.311C490.213 500.542 490.096 500.771 489.978 501ZM389.206 501C393.685 498.085 399.99 495.162 408.534 492.093C425.765 485.882 436.007 475.848 451.404 454.154L454.466 449.829C470.278 427.495 479.827 418.482 496.678 414.26C498.162 413.89 499.603 413.528 501 413.174V411.389C499.473 411.777 497.895 412.175 496.262 412.582C486.644 415.004 478.565 419.675 471.108 426.716C465.347 432.166 460.815 437.875 453.064 448.826L449.985 453.151C434.796 474.585 424.761 484.412 407.946 490.467C397.923 494.089 390.888 497.501 386.186 501H389.206ZM362.696 501C364.543 494.927 367.715 491.046 372.464 489.463C400.68 480.052 418.672 467.804 432.235 443.688C448.099 415.506 475.329 390.94 491.28 390.94C494.702 390.94 497.928 390.854 501 390.663V387.197C497.94 387.392 494.715 387.48 491.28 387.48C473.721 387.48 445.608 412.824 429.225 441.992C416.146 465.243 398.863 477.007 371.356 486.176C365.047 488.276 361.125 493.293 359.053 501H362.696ZM343.356 501C343.362 500.085 343.365 499.152 343.365 498.2C343.365 480.71 345.199 470.053 349.057 463.513C352.24 458.116 356.323 455.538 365.111 452.493C371.46 450.331 372.913 449.812 374.401 449.258C378.259 447.822 381.719 446.317 385.179 444.501C393.881 439.916 402.168 433.533 410.61 424.398C451.753 379.828 471.698 365.819 501 364.273V362.54C471.095 364.083 450.799 378.289 409.33 423.222C401.026 432.218 392.912 438.48 384.349 442.978C380.936 444.763 377.411 446.323 373.796 447.649C372.325 448.186 370.889 448.705 369.004 449.345C346.652 457.078 341.635 465.607 341.635 498.2C341.635 499.153 341.632 500.086 341.626 501H343.356ZM323.432 501C323.514 497.829 323.355 494.498 323.02 490.64C322.622 486.055 322.605 485.779 322.605 484.36C322.605 474.776 323.159 468.063 325.338 460.451C329.127 447.234 336.826 438.238 349.628 435.038C373.554 429.052 407.064 404.313 427.91 381.131C442.502 364.92 473.832 348.485 501 343.304V341.545C473.37 346.733 441.526 363.427 426.63 379.989C405.991 402.912 372.74 427.46 349.212 433.342C335.736 436.716 327.622 446.213 323.678 459.967C321.429 467.804 320.875 474.637 320.875 484.36C320.875 485.848 320.892 486.125 321.29 490.796C321.62 494.606 321.778 497.886 321.697 501H323.432ZM297.095 501C297.53 498.459 297.969 495.63 298.437 492.439C300.599 477.907 301.378 473.392 303.281 466.126C308.038 447.961 316.325 434.034 330.926 422.772C339.057 416.475 346.358 411.977 353.589 408.517C356.409 407.167 359.143 405.991 362.257 404.815C363.522 404.325 366.906 403.075 368.656 402.429C369.131 402.254 369.485 402.123 369.644 402.064C378.519 398.69 383.103 395.628 387.982 388.76C390.798 384.662 393.209 380.299 395.179 375.733C400.455 364.021 401.216 356.79 400.023 345.597C399.573 341.272 399.469 339.957 399.573 337.933C399.936 329.992 404.815 322.951 419.139 312.052C435.903 299.285 440.228 287.642 434.519 277.002C430.505 269.529 423.326 264.148 410.385 256.969C407.41 255.325 403.707 254.478 398.604 254.062C397.175 253.925 396.243 253.873 393.488 253.719L393.449 253.716C384.539 253.249 381.823 252.453 381.702 249.599C381.563 245.43 387.67 236.849 401.943 222.005C413.205 210.276 422.184 201.868 430.055 195.398C432.96 193.007 435.937 190.705 438.982 188.495L446.092 183.409C447.476 182.406 448.653 181.506 449.777 180.607C455.538 176.039 460.659 170.642 467.752 161.369L472.094 155.625L476.073 150.28C478.442 147.08 480.894 143.941 483.426 140.868C488.899 134.306 494.361 129.321 501 125.534V123.526C493.829 127.466 487.965 132.733 482.111 139.761C479.949 142.322 477.803 145.107 474.689 149.242L470.693 154.587C469.262 156.51 467.82 158.424 466.368 160.331C459.362 169.483 454.345 174.759 448.705 179.257C447.598 180.139 446.438 181.005 445.072 182.008L437.944 187.094C434.865 189.36 432.045 191.523 428.948 194.066C421.025 200.571 411.994 209.03 400.697 220.794C386.044 236.053 379.816 244.807 379.989 249.668C380.145 253.976 383.363 254.927 393.345 255.446L393.398 255.449C396.142 255.603 397.073 255.655 398.448 255.775C403.327 256.19 406.839 256.969 409.555 258.491C422.184 265.498 429.19 270.74 432.996 277.815C438.255 287.607 434.225 298.385 418.084 310.685C403.396 321.861 398.223 329.3 397.843 337.846C397.774 340.496 397.931 343.146 398.31 345.77C399.469 356.686 398.742 363.623 393.604 375.007C391.217 380.318 388.916 384.47 386.58 387.757C381.909 394.296 377.602 397.185 369.038 400.438C368.761 400.543 367.854 400.878 366.748 401.286C364.955 401.948 362.64 402.803 361.634 403.188C358.503 404.399 355.717 405.576 352.845 406.96C344.686 410.937 336.978 415.78 329.854 421.405C314.941 432.927 306.447 447.182 301.603 465.693C299.682 473.046 298.887 477.596 296.741 492.197C296.255 495.498 295.8 498.404 295.35 501H297.095ZM253.444 501C253.504 494.67 252.414 489.682 249.789 485.623C241.33 472.527 214.48 468.755 181.385 476.592C168.393 479.672 157.684 483.322 148.325 487.612C142.221 490.414 130.857 497.1 124.413 501H127.772C134.341 497.072 143.74 491.614 149.034 489.187C159.568 484.476 170.544 480.825 181.8 478.288C214.255 470.589 240.378 474.274 248.336 486.557C250.744 490.29 251.773 494.98 251.712 501H253.444ZM221.984 501C221.951 500.978 221.918 500.956 221.884 500.933C216.499 497.296 210.338 494.968 203.892 494.134C192.972 492.727 182.052 495.17 168.88 501H173.273C184.53 496.445 194.127 494.619 203.633 495.847C208.959 496.538 214.081 498.294 218.7 501H221.984ZM11 485.054C17.6759 474.376 25.5828 464.516 34.56 455.677C39.1972 451.088 43.9982 446.668 48.9536 442.425C48.9125 442.454 50.1255 441.409 51.8586 439.915C55.2347 437.005 60.5846 432.393 62.4822 430.713C66.4225 427.265 70.1762 423.609 73.7272 419.762C87.0482 405.126 95.8366 396.649 108.466 387.636C125.662 375.353 145.488 366.253 169.327 360.682C233.389 345.735 257.557 338.711 271.103 329.663C285.981 319.75 307.952 286.811 334.836 234.842C343.867 217.369 356.063 203.01 371.391 190.364C380.266 183.029 387.93 177.821 401.753 169.206C414.589 161.213 418.395 158.584 421.44 155.089C423.513 152.524 425.23 149.69 426.543 146.664C427.599 144.415 431.508 135.471 431.733 134.952C434.086 129.762 436.162 125.61 438.567 121.579C449.864 102.601 466.299 90.439 492.889 85.595C495.745 85.0789 498.439 84.6181 501 84.2084V85.9741C498.529 86.3747 495.932 86.8237 493.183 87.325C467.129 92.0479 451.109 103.898 440.055 122.461C437.549 126.725 435.296 131.133 433.308 135.661C433.1 136.146 429.173 145.124 428.1 147.408C426.722 150.579 424.918 153.547 422.737 156.231C419.52 159.916 415.696 162.563 402.669 170.676C388.916 179.257 381.304 184.43 372.498 191.696C357.343 204.204 345.285 218.39 336.359 235.638C309.353 287.884 287.296 320.961 272.072 331.117C258.266 340.32 234.064 347.361 169.708 362.378C146.093 367.879 126.492 376.892 109.469 389.054C96.9784 397.981 88.2419 406.372 75.0074 420.938C71.4182 424.828 67.6241 428.524 63.6413 432.01C60.8463 434.487 50.6522 443.23 50.1004 443.703L50.0781 443.722C44.421 448.635 40.0441 452.649 35.7883 456.905C26.2771 466.284 17.983 476.821 11.1012 488.27C11.0673 488.326 11.0335 488.383 11 488.439L11 485.054ZM11 447.924C17.7968 441.302 26.0501 434.88 36.4111 427.824C38.4756 426.42 43.5569 423.113 49.0353 419.548C56.1813 414.898 64.0029 409.809 66.6861 407.929C70.7561 404.992 74.5752 401.723 78.1041 398.154C80.2552 396.045 86.7481 389.337 89.3665 386.632C90.0122 385.965 90.4223 385.542 90.4736 385.49C102.584 373.173 111.787 366.063 123.43 361.409C129.087 359.143 137.27 356.669 153.255 352.205C160.068 350.342 166.872 348.45 173.669 346.531C181.016 344.472 188.34 342.332 195.64 340.113C231.451 329.179 255.308 318.92 267.556 307.433C283.196 292.78 288.697 282.538 295.704 260.965C299.129 250.377 300.945 245.655 304.232 239.513C320.391 209.515 353.07 172.614 377.757 162.442C403.396 151.889 413.43 140.557 413.43 127.98C413.43 123.966 417.876 115.005 424.537 106.32C432.46 96.0096 442.217 87.4461 452.217 82.827C465.075 76.8973 483.345 71.8494 501 68.8014V65.2931C482.87 68.3812 464.044 73.5654 450.763 79.6957C440.21 84.5743 430.021 93.5011 421.786 104.227C414.693 113.448 409.97 122.98 409.97 127.98C409.97 138.948 400.922 149.172 376.443 159.258C350.856 169.777 317.692 207.249 301.188 237.887C297.762 244.253 295.911 249.132 292.417 259.892C285.583 280.964 280.324 290.721 265.204 304.907C253.457 315.91 229.929 326.013 194.637 336.808C187.354 339.022 180.047 341.156 172.718 343.209C165.923 345.096 159.13 346.988 152.338 348.884C136.215 353.364 127.963 355.873 122.15 358.191C109.971 363.07 100.421 370.44 87.9997 383.068C87.7229 383.363 78.329 393.102 75.6821 395.697C72.2913 399.126 68.6227 402.268 64.7139 405.091C62.0854 406.925 54.4158 411.917 47.3303 416.53C41.778 420.144 36.5844 423.525 34.4562 424.969C25.1264 431.321 17.4693 437.184 11 443.164L11 447.924ZM11 419.842C12.5131 418.789 14.0347 417.747 15.5646 416.717C18.9748 414.406 26.2477 409.739 33.1975 405.28C40.1388 400.826 46.7578 396.579 48.8844 395.092C53.5915 391.654 58.1186 387.975 62.4476 384.072C62.4476 384.072 74.9728 373.034 78.848 369.713C85.9621 363.465 93.4433 357.647 101.251 352.292C109.261 346.946 116.458 343.33 122.98 341.583C135.596 338.304 148.168 334.861 160.694 331.255C182.492 324.923 198.858 319.249 209.653 313.851C213.734 311.909 217.977 310.328 222.334 309.128C237.506 304.457 243.475 301.914 252.263 294.821C264.2 285.185 275.255 269.753 286.171 245.949C313.713 186.039 318.955 178.271 341.272 161.525C346.583 157.546 352.067 154.57 360.734 150.643L364.731 148.844C375.076 144.225 379.972 141.682 385.369 137.772C392.495 132.656 398.238 125.849 402.081 117.963C405.437 111.251 406.527 106.753 408.084 96.2345C409.382 87.5153 410.558 83.6401 413.845 79.2805C418.066 73.7099 425.54 68.9351 437.944 64.2641C444.725 61.7882 451.624 59.6519 458.618 57.8631C475.838 53.3352 488.275 50.8937 501 49.5068V47.7893C488.13 49.1813 475.572 51.6368 458.168 56.2196C450.054 58.3475 443.151 60.4927 437.321 62.6725C424.64 67.4127 416.925 72.3778 412.479 78.2598C408.932 82.9135 407.721 87.0135 406.372 95.9922C404.832 106.338 403.794 110.697 400.542 117.219C393.224 131.838 384.677 138.031 364.039 147.287L360.008 149.086C351.254 153.065 345.666 156.075 340.234 160.158C317.623 177.112 312.242 185.105 284.614 245.257C273.784 268.819 262.903 284.026 251.173 293.472C242.61 300.392 236.797 302.883 221.815 307.485C217.374 308.712 213.05 310.327 208.892 312.311C198.201 317.674 181.921 323.314 160.21 329.611C149.536 332.708 144.657 334.04 122.548 339.94C115.801 341.739 108.448 345.424 100.283 350.873C93.4319 355.458 86.3043 361.063 77.7062 368.433C73.831 371.737 61.2885 382.792 61.3231 382.792C55.3719 387.982 51.3237 391.269 47.881 393.691C45.8217 395.125 39.4806 399.199 32.73 403.536C25.6429 408.089 18.1045 412.932 14.5958 415.316C13.392 416.126 12.1934 416.944 11 417.769L11 419.842ZM11 385.049C19.6225 378.566 27.8237 371.493 41.6703 358.97L44.6113 356.305C75.1804 328.625 89.2972 317.726 107.549 310.426C114.382 307.692 122.617 305.149 134.589 301.914C134.935 301.828 160.314 295.167 167.874 293.039C202.578 283.247 224.289 273.283 237.61 258.301C247.731 246.935 254.997 233.787 267.626 206.626L271.224 198.858C286.483 166.04 296.032 149.951 310.218 137.27C318.073 130.142 326.904 124.171 336.445 119.538L343.417 116.147C354.593 110.628 360.336 105.801 366.564 95.0754C369.636 89.6404 372.274 83.9715 374.453 78.1214C382.186 58.0015 393.881 44.1615 408.24 35.7364C418.793 29.5603 430.038 26.775 439.38 26.775C451.542 26.775 461.316 26.5674 474.395 25.7889C483.288 25.3041 492.16 24.5409 501 23.5006V21.7502C492.126 22.8005 483.219 23.5706 474.291 24.0589C461.282 24.8374 451.525 25.045 439.397 25.045C429.761 25.045 418.205 27.9168 407.392 34.2486C392.687 42.864 380.733 57.0154 372.844 77.4986C370.705 83.2702 368.113 88.864 365.094 94.2277C359.056 104.608 353.572 109.227 342.673 114.59L335.684 117.998C326.005 122.701 317.046 128.759 309.076 135.99C294.665 148.861 285.029 165.106 269.684 198.097L266.069 205.882C253.526 232.904 246.312 245.949 236.347 257.159C223.32 271.812 201.834 281.673 167.407 291.378C161.319 293.1 143.559 297.776 136.803 299.555C135.207 299.975 134.226 300.234 134.156 300.253C122.133 303.488 113.829 306.066 106.909 308.834C88.4149 316.221 74.1943 327.189 43.4695 355.025L40.5285 357.689C27.2838 369.679 19.2129 376.662 11 382.897V385.049ZM11 92.4408C20.2014 88.297 32.2071 82.9287 36.2753 81.1096C37.3211 80.642 37.8424 80.409 37.6567 80.4915C70.8208 65.5789 86.2697 68.5026 123.292 94.418C136.976 104.002 146.197 117.34 151.75 133.62C156.975 148.896 158.255 162.182 158.255 181.627C158.255 196.021 157.113 204.031 151.889 214.445C144.657 228.908 130.61 242.368 107.635 255.049C65.3367 278.386 40.4593 302.71 16.2393 337.812C14.8827 339.778 13.1154 341.999 11 344.424L11 341.784C12.4995 340 13.7827 338.345 14.8207 336.843C39.1791 301.516 64.2468 277.002 106.805 253.526C129.502 241.018 143.29 227.801 150.349 213.684C155.4 203.546 156.525 195.779 156.525 181.627C156.525 162.372 155.245 149.224 150.124 134.173C144.674 118.223 135.661 105.196 122.288 95.8366C85.7334 70.2326 70.9073 67.43 38.3833 82.0831C39.2844 81.6712 22.5993 89.1136 11 94.3325L11 92.4408ZM11 81.6109C16.7778 79.0645 22.4662 76.3196 28.0552 73.3812L31.4287 71.5301C35.4804 69.2664 39.5997 67.1261 43.7809 65.1118C74.6268 50.2511 102.393 47.3101 129.329 63.0185C168.306 85.768 194.585 126.181 194.585 159.12C194.585 191.903 193.357 202.093 185.831 215.726C183.442 219.996 180.65 224.028 177.493 227.766C166.092 241.433 156.75 256.208 155.02 265.359C152.563 278.49 164.5 279.891 192.353 267.159C215.743 256.467 231.728 240.862 242.454 220.864C246.91 212.426 250.498 203.557 253.163 194.395C254.262 190.717 256.544 182.14 257.93 176.929C258.506 174.761 258.928 173.176 259.045 172.77C259.78 169.996 260.758 167.292 261.969 164.691C274.719 139.19 298.039 112.548 323.816 101.078C337.414 95.0408 346.946 83.9515 358.174 64.4025C358.878 63.1677 360.603 60.0793 362.374 56.9074C364.3 53.4573 366.282 49.9084 367.066 48.5384C373.052 38.193 377.619 32.1207 382.809 28.332C395.132 19.3683 414.937 13.5676 438.797 11L425.979 11C407.478 14.1007 392.118 19.4167 381.788 26.948C376.339 30.8924 371.668 37.1204 365.578 47.6734C364.698 49.2036 362.349 53.4107 360.243 57.183C358.707 59.9359 357.299 62.4573 356.686 63.5375C345.614 82.8097 336.289 93.6568 323.124 99.5042C296.897 111.164 273.335 138.1 260.411 163.929C259.157 166.62 258.144 169.416 257.384 172.285C257.261 172.71 256.831 174.321 256.246 176.513C254.853 181.732 252.581 190.245 251.485 193.876C248.862 202.935 245.327 211.705 240.932 220.051C230.379 239.721 214.653 255.066 191.627 265.584C164.846 277.833 154.657 276.639 156.733 265.671C158.376 256.9 167.614 242.316 178.807 228.874C182.043 225.05 184.905 220.925 187.354 216.556C195.052 202.595 196.315 192.198 196.315 159.12C196.315 125.523 169.69 84.557 130.091 61.4788C102.67 45.459 74.3327 48.4692 43.0197 63.5548C40.2171 64.9215 37.4145 66.3401 34.3697 67.9663L30.5983 70.0077L27.2248 71.8588C23.345 73.9707 18.376 76.3656 11 79.6831L11 81.6109ZM11 59.9485L22.9517 54.2301C30.5637 50.6317 36.9474 47.708 43.037 45.113C72.274 32.6397 93.0167 28.2455 106.909 33.6431L116.302 37.2415C120.281 38.7812 123.499 40.0614 126.682 41.3589C134.969 44.767 142.235 48.054 149.155 51.687C180.486 68.122 200.917 89.401 208.442 119.538C220.379 167.234 214.67 197.318 194.741 226.106C187.198 237.005 188.236 244.859 196.367 244.322C204.186 243.803 215.12 235.378 223.857 221.867C229.341 213.373 232.835 203.477 237.991 184.136L240.914 173.15C242.074 168.877 243.06 165.348 244.063 161.957C252.523 133.654 262.833 115.403 280.722 102.739C288.848 96.9758 304.096 87.1617 314.417 80.5189C319.741 77.0923 323.754 74.5095 324.802 73.7618C336.704 65.2502 343.486 56.9808 350.233 41.7568C356.518 27.6099 364.997 17.5862 376.562 11H373.238C362.604 17.7654 354.625 27.6425 348.607 41.2032C342.016 56.012 335.459 64.0219 323.799 72.3432C322.763 73.0827 318.727 75.6816 313.37 79.1318C303.061 85.7704 287.858 95.5605 279.718 101.321C261.449 114.261 250.948 132.807 242.419 161.455C241.399 164.881 240.395 168.427 239.254 172.7L236.33 183.686C231.226 202.854 227.766 212.629 222.403 220.933C213.926 234.029 203.425 242.108 196.263 242.592C190.07 242.99 189.291 237.022 196.159 227.074C216.366 197.889 222.178 167.303 210.138 119.122C202.456 88.4322 181.679 66.8072 149.951 50.1473C142.583 46.3299 135.038 42.8659 127.34 39.7673C124.139 38.4525 120.904 37.1723 116.925 35.6499L107.531 32.0169C93.0859 26.3944 72.0145 30.8924 42.3623 43.5214C36.2208 46.1337 29.8371 49.0401 22.2078 52.6731C20.2779 53.5782 15.6334 55.8028 11 58.0255V59.9485ZM11 21.5336C11.5162 21.297 12.0105 21.0325 12.5025 20.7373L14.8207 19.2495C15.8587 18.5921 16.7756 18.0558 17.8655 17.4849C21.6388 15.5966 25.5764 14.0562 29.6295 12.8831C31.5135 12.3046 33.1806 11.6871 34.6598 11H29.8704C29.6215 11.0806 29.3682 11.1604 29.1105 11.2396C24.9622 12.439 20.932 14.014 17.0697 15.9452C15.9279 16.5507 14.9591 17.1043 13.8865 17.7963L11.6202 19.2495C11.4149 19.3731 11.2088 19.4908 11 19.6029V21.5336ZM85.9456 11C86.0188 11.0397 86.0922 11.0792 86.1659 11.1185C92.0306 14.2498 98.2067 15.7722 110.611 17.7098C126.838 20.2529 129.468 20.7027 137.253 22.7268C148.36 25.5421 159.058 29.7749 169.085 35.3212C183.132 43.0716 193.772 54.801 202.993 70.7862C205.768 75.6357 211.03 86.5652 215.236 95.302C218.082 101.214 220.445 106.122 221.227 107.462C227.628 118.482 233.873 120.195 242.766 111.303C251.173 102.895 260.411 97.0303 278.922 87.2558L282.59 85.3182C296.465 78.0003 303.333 73.9867 310.287 68.6756C319.353 61.7556 325.667 54.2647 329.456 45.286C335.149 31.7598 341.8 20.1331 348.951 11L346.761 11C339.817 20.1022 333.39 31.4852 327.864 44.6113C324.214 53.2786 318.072 60.5446 309.232 67.2916C302.399 72.5335 295.582 76.5125 281.777 83.7958C281.691 83.8244 279.793 84.8359 278.68 85.4293C278.448 85.5531 278.25 85.6587 278.109 85.7334C259.46 95.5771 250.118 101.511 241.555 110.057C233.545 118.067 228.597 116.718 222.715 106.597C221.987 105.343 219.775 100.744 217.067 95.1128C212.825 86.2899 207.363 74.9333 204.481 69.9385C195.139 53.6938 184.274 41.7222 169.915 33.7988C159.768 28.1858 148.942 23.9006 137.703 21.0487C129.814 19.0246 127.184 18.5575 110.888 15.9971C100.749 14.4053 94.8662 13.1108 89.9379 11H85.9456ZM144.384 11C145.07 11.32 145.795 11.6474 146.56 11.9835C147.641 12.4577 151.064 13.84 155.105 15.4719C161.088 17.8882 168.426 20.8517 171.524 22.2251C187.406 29.197 197.682 36.0132 202.629 44.1269C221.296 74.6787 230.673 80.1109 249.72 72.4989C262.557 67.3607 269.477 64.143 276.829 59.3682C286.708 52.9499 294.129 45.1995 299.06 35.3385C301.339 30.7657 304.051 26.4209 307.156 22.3635C308.615 20.4542 310.132 18.5906 311.706 16.7756L316.204 11.6375C316.39 11.4232 316.573 11.2107 316.754 11H312.166L309.094 14.5093C307.466 16.3802 305.896 18.3015 304.388 20.2702C301.205 24.4568 298.471 28.7818 295.98 33.7988C291.344 43.0543 284.337 50.3549 274.961 56.4618C267.833 61.0809 261.069 64.2295 248.44 69.2984C231.296 76.1492 223.476 71.5993 205.571 42.3104C200.156 33.4182 189.395 26.3079 172.925 19.0592C169.888 17.7147 162.929 14.9025 157.075 12.5369C155.73 11.9933 154.443 11.4732 153.275 11H144.384ZM237.23 11C234.495 14.0342 232.936 18.7768 233.51 23.4188C234.634 32.311 242.679 36.8436 256.208 33.6777C272.674 29.7981 286.137 21.9889 297.305 11L294.816 11C284.108 21.1318 271.318 28.3407 255.81 31.9823C243.233 34.9406 236.209 30.9962 235.24 23.2112C234.621 18.3592 236.641 13.4187 239.754 11H237.23ZM11 116.394C27.1117 106.954 45.9157 101.182 60.51 101.182C69.7309 101.182 89.5221 114.296 105.04 130.869C123.603 150.695 132.651 171.126 127.063 187.094C121.562 202.837 107.358 219.22 87.2212 235.292C72.62 246.935 55.4584 257.782 43.5906 263.716C37.155 266.934 32.1899 272.158 26.6885 280.998C26.3916 281.472 25.0548 283.876 23.0824 287.424C20.0614 292.858 15.5495 300.973 11 308.938V305.426C14.8928 298.574 18.6444 291.836 21.3252 287.021C23.4476 283.209 24.899 280.602 25.218 280.099C30.8751 270.999 36.0478 265.55 42.8294 262.159C54.5761 256.277 71.6339 245.499 86.1313 233.925C106.061 218.044 120.057 201.868 125.437 186.523C130.748 171.334 121.942 151.456 103.777 132.045C88.5533 115.783 69.1081 102.912 60.51 102.912C45.9728 102.912 27.0471 108.814 11 118.411L11 116.394ZM11 293.42C16.9845 283.458 20.72 274.257 20.72 267.85C20.72 259.322 25.8062 254.097 36.2727 249.288C37.2655 248.829 39.6223 247.822 41.7701 246.905C43.5896 246.128 45.259 245.415 45.8223 245.153C47.2063 244.53 48.3308 243.959 49.2823 243.388C50.7182 242.523 52.206 241.797 54.5242 240.793C68.2431 234.773 74.0732 230.725 84.384 216.988C84.8005 216.435 85.8547 215.091 87.2247 213.345C91.2038 208.274 97.8464 199.807 99.262 197.439C102.722 191.592 103.76 185.779 103.76 172.7C103.76 160.487 96.0442 144.19 84.7127 131.751C72.3432 118.188 58.1053 111.683 46.0818 115.974C27.0102 122.785 20.7657 125.295 11 131.243V135.299C21.6438 128.657 27.2557 126.365 47.2582 119.226C57.6555 115.507 70.6132 121.423 82.1523 134.087C92.9461 145.919 100.298 161.452 100.3 172.696C100.299 185.212 99.3647 190.487 96.2691 195.692C95.0163 197.809 88.8195 205.705 84.8258 210.794C83.3044 212.732 82.1028 214.263 81.616 214.912C71.7204 228.095 66.3574 231.815 53.1229 237.61C50.7009 238.683 49.092 239.461 47.5004 240.413C46.67 240.914 45.6666 241.433 44.3864 242.022C43.918 242.231 42.5797 242.803 41.0254 243.466C38.7331 244.444 35.9709 245.623 34.8368 246.139C23.2631 251.45 17.26 257.643 17.26 267.85C17.26 272.59 14.9227 279.15 11 286.489L11 293.42ZM11 146.344L11 148.299C13.5056 146.926 16.2622 145.619 19.3187 144.346C25.425 141.878 31.3059 138.885 36.8955 135.402C36.9327 135.378 37.0344 135.314 37.1848 135.22C38.153 134.611 41.1409 132.732 41.9644 132.253C43.5214 131.319 44.6978 130.731 45.8223 130.385C49.6629 129.156 53.6073 130.298 63.5548 135.661C88.4149 149.051 95.975 173.635 78.8134 200.173C72.1356 210.501 63.278 215.068 47.5004 218.632C47.2512 218.688 47.0264 218.74 46.8082 218.789C45.7542 219.03 44.8548 219.235 42.1028 219.808C31.4979 222.075 26.6366 223.493 21.5677 226.313C17.1161 228.788 13.6073 232.05 11 236.37L11 240.051C13.5412 234.558 17.3036 230.653 22.3981 227.818C27.2767 225.102 32.0169 223.735 42.4661 221.504C43.051 221.38 43.5521 221.273 43.9886 221.181C46.0437 220.745 46.6681 220.613 47.881 220.327C64.0565 216.677 73.2774 211.902 80.2666 201.107C97.9991 173.704 90.093 147.979 64.3852 134.139C54.0398 128.568 49.7321 127.305 45.286 128.741C44.0231 129.139 42.7429 129.779 41.0821 130.765C40.1306 131.336 36.2381 133.775 35.9786 133.948V133.931C30.472 137.367 24.6778 140.319 18.6613 142.754C15.8704 143.907 13.3322 145.1 11 146.344ZM11 177.383C13.2324 184.519 18.989 191.627 27.2248 196.194C47.6215 207.543 68.7448 207.439 73.4504 190.485L73.4677 190.502C79.8341 167.545 76.6855 150.816 60.8387 144.484C51.8773 140.886 44.8016 141.526 36.6187 145.73C34.2992 146.953 32.0363 148.281 29.8371 149.709L26.3252 151.958C23.804 153.616 21.2185 155.174 18.5748 156.629C14.7392 158.76 12.2686 161.71 11 165.086V177.383ZM52.2037 501C27.0069 493.08 30.3231 486.332 51.1853 461.316C81.3565 425.107 132.703 381.425 148.723 381.425C165.884 381.425 241.866 360.7 262.522 350.371C278.888 342.189 304.596 313.73 326.221 284.891C326.579 284.411 328.722 281.022 331.821 276.121C339.33 264.243 352.456 243.48 359.437 233.683C375.612 210.968 390.957 194.672 406.06 186.056C418.672 178.842 428.827 168.272 438.584 153.653C439.803 151.822 442.555 147.262 445.746 141.976C451.299 132.775 458.179 121.376 460.607 118.344C463.271 115.005 465.797 112.791 468.427 111.614C480.314 106.334 490.584 102.481 501 99.9206V101.703C490.827 104.237 480.763 108.026 469.119 113.206C466.801 114.244 464.465 116.285 461.956 119.434C459.599 122.359 452.834 133.568 447.31 142.721C444.079 148.076 441.272 152.727 440.02 154.605C430.125 169.431 419.779 180.209 406.925 187.544C392.099 196.021 376.892 212.162 360.855 234.669C354.032 244.244 341.277 264.412 333.684 276.419C330.343 281.703 328.001 285.406 327.605 285.929C305.807 314.993 279.995 343.573 263.283 351.928C242.419 362.36 166.161 383.155 148.723 383.155C133.464 383.155 82.308 426.664 52.5001 462.424C31.1858 488.001 28.363 492.844 58.0765 501H52.2037ZM501 306.533C493.895 301.886 487.336 297.443 487.336 297.433C484.39 295.575 481.39 293.803 478.34 292.122C450.59 276.846 419.052 250.326 418.62 237.022C418.43 231.036 422.063 225.656 429.484 219.272C431.266 217.715 433.256 216.141 435.851 214.169C436.268 213.85 437.062 213.247 437.971 212.558C439.773 211.192 442.023 209.485 442.667 208.979C450.4 203.097 455.088 198.962 458.791 194.36C471.586 178.458 487.68 161.759 501 150.527V155.074C488.375 166.057 473.445 181.678 461.489 196.54C457.562 201.418 452.701 205.709 444.76 211.747L437.944 216.902C435.827 218.503 433.755 220.164 431.733 221.884C425.038 227.645 421.924 232.264 422.08 236.918C422.443 248.405 453.462 274.494 480 289.078C483.045 290.756 486.055 292.538 489.169 294.492L489.306 294.585C490.192 295.184 495.244 298.596 501 302.388V306.533ZM501 289.494V287.48C493.907 283.219 487.015 278.632 480.346 273.732C478.007 272.044 472.463 267.964 467.998 264.678C465.098 262.544 462.653 260.745 461.835 260.152C455.192 255.343 450.573 252.246 446.715 250.17C439.588 246.347 440.107 240.603 447.511 231.815C453.064 225.223 454.639 223.839 478.616 203.771C485.121 198.322 489.758 194.308 494.048 190.329C496.431 188.13 498.75 185.861 501 183.527V181.044C498.384 183.811 495.673 186.487 492.872 189.066C487.86 193.66 482.732 198.125 477.492 202.456C453.393 222.628 451.836 223.995 446.179 230.707C438.186 240.205 437.546 247.194 445.885 251.692C451.066 254.659 456.053 257.952 460.815 261.553C461.774 262.241 464.976 264.599 468.524 267.211C472.653 270.251 477.251 273.636 479.326 275.134C487.574 281.045 494.42 285.65 501 289.494ZM501 232.733C495.968 234.197 491.854 236.326 489.1 239.046C484.1 243.994 483.806 250.55 488.823 258.18C492.829 264.261 496.745 269.167 501 273.07V270.689C497.3 267.08 493.83 262.639 490.277 257.228C485.675 250.256 485.934 244.599 490.311 240.274C492.752 237.865 496.447 235.916 501 234.532V232.733ZM30.7713 151.162C32.9259 149.765 35.1426 148.466 37.4145 147.269V147.287C45.1649 143.273 51.7216 142.702 60.1986 146.076C74.9901 152.01 77.9657 167.822 71.7896 190.018C67.4992 205.467 47.6215 205.57 28.0552 194.689C11.4645 185.485 5.66901 165.763 19.4052 158.151C20.7546 157.407 22.104 156.611 23.5226 155.746C24.4864 155.162 25.4501 154.554 26.6011 153.827C26.8138 153.692 27.0328 153.554 27.2594 153.411L30.7713 151.162ZM56.8078 185.52C64.0738 183.859 68.295 178.15 68.295 168.289C68.295 147.944 43.902 144.657 32.138 160.331C24.4049 170.642 24.5087 175.122 31.5498 179.24C32.3283 179.69 33.2106 180.174 34.3697 180.762L37.6394 182.389C43.729 185.433 51.0988 186.835 56.8078 185.52ZM53.9014 152.442C61.5976 153.497 66.5621 159.117 66.565 168.281C66.5625 177.375 62.8779 182.354 56.4272 183.842C51.1334 185.053 44.1788 183.721 38.4006 180.831L35.1655 179.223C34.0237 178.634 33.176 178.185 32.4148 177.752C26.429 174.24 26.3425 170.953 33.522 161.369C38.3487 154.933 46.5835 151.456 53.9014 152.442ZM171.109 390.905C158.307 394.106 149.674 396.511 143.256 398.777C136.163 401.285 130.904 403.777 126.925 406.441C121.908 409.814 119.417 412.842 116.078 418.655C111.995 425.799 110.611 427.841 106.597 431.854C104.227 434.224 103.242 435.129 97.086 440.782L96.3902 441.421L93.3108 444.259C86.0794 450.971 81.8409 455.538 79.3324 459.777C76.0627 465.295 76.3049 469.759 80.7683 472.959C96.0615 483.876 106.736 486.142 128.205 480C137.858 477.25 147.425 473.305 160.902 466.904C160.383 467.146 174.846 460.209 178.6 458.479C183.587 456.094 188.724 454.036 193.979 452.32C199.844 450.521 203.823 450.106 212.162 450.002C212.94 449.968 213.304 449.968 213.753 449.968C223.891 449.795 230.154 448.48 239.115 443.601C258.18 433.204 263.197 431.595 276.76 431.595C283.005 431.595 286.898 428.481 291.534 421.699C291.794 421.301 293.576 418.637 294.077 417.928C296.707 414.157 298.593 412.565 300.98 412.565C314.491 412.565 327.38 409.018 336.186 400.195C339.127 397.272 342.811 395.507 351.202 392.48L352.966 391.84C360.354 389.141 364.194 387.376 367.62 384.643C372.135 381.044 374.505 376.391 374.505 370.18C374.505 342.033 380.474 320.719 394.833 312.104C403.794 306.724 411.614 298.333 414.036 291.309C416.907 282.936 412.046 277.625 399.59 277.625C392.203 277.625 385.975 275.722 377.706 271.674L375.526 270.584C373.523 269.525 371.48 268.544 369.401 267.643C366.443 266.345 364.108 265.671 361.928 265.567C356.686 265.342 352.534 268.594 348.641 276.379C336.601 300.461 298.645 341.86 272.816 359.073C261.259 366.772 240.568 373.64 206.678 382.169C202.975 383.097 194.43 385.186 186.563 387.11C179.619 388.809 173.202 390.378 171.109 390.905ZM127.893 407.877C131.734 405.299 136.872 402.86 143.844 400.403C150.193 398.171 158.774 395.767 171.524 392.583C173.431 392.103 178.927 390.761 185.142 389.243C193.475 387.208 203.099 384.858 207.093 383.847C241.191 375.266 262.003 368.381 273.784 360.527C299.856 343.14 338.019 301.499 350.199 277.158C353.814 269.927 357.395 267.124 361.859 267.297C362.659 267.334 363.196 267.33 363.726 267.388C365.417 267.574 367.039 268.397 376.944 273.231C385.421 277.383 391.891 279.355 399.59 279.355C410.956 279.355 414.849 283.611 412.392 290.756C410.126 297.347 402.6 305.426 393.95 310.616C378.882 319.664 372.775 341.462 372.775 370.18C372.775 380.404 367.256 384.798 352.378 390.213L350.614 390.853C341.964 393.967 338.14 395.801 334.974 398.984C326.549 407.375 314.076 410.835 300.98 410.835C297.849 410.835 295.6 412.721 292.659 416.925L290.098 420.731C285.756 427.097 282.279 429.865 276.76 429.865C262.851 429.865 257.592 431.56 238.285 442.079C229.6 446.819 223.614 448.082 213.719 448.255H212.145C203.65 448.376 199.533 448.791 193.461 450.677C188.135 452.411 182.928 454.491 177.873 456.905C174.102 458.635 159.639 465.589 160.158 465.347C146.768 471.696 137.253 475.623 127.738 478.34C106.788 484.325 96.6497 482.18 81.7717 471.558C78.156 468.963 77.9657 465.486 80.8202 460.659C83.2076 456.611 87.3942 452.13 94.4872 445.521L97.5493 442.702L97.8895 442.39C104.399 436.425 105.393 435.515 107.826 433.065C111.978 428.931 113.431 426.786 117.583 419.52C120.801 413.914 123.136 411.077 127.893 407.877ZM185.503 406.181C179.88 407.029 176.558 407.375 172.96 407.375C170.988 407.375 169.292 407.358 166.438 407.306C151.889 407.046 147.754 407.686 141.907 412.375C141.093 413.015 140.28 413.741 139.484 414.554C139.44 414.597 139.168 414.85 138.716 415.269C135.669 418.097 124.452 428.508 119.676 433.238C117.064 435.833 114.676 438.307 112.497 440.677C105.196 448.584 100.508 455.071 99.0025 459.932C97.0476 466.143 100.335 469.655 108.95 469.655C125.731 469.655 134.658 465.935 148.827 455.763L150.211 454.777C157.234 449.743 161.092 447.39 166.351 445.383L170.296 443.895L170.763 443.722C183.945 438.757 189.637 436.283 195.242 432.65C202.768 427.772 206.695 422.166 206.695 415.16C206.695 409.382 204.498 406.285 200.138 405.316C196.99 404.624 194.533 404.849 185.503 406.181ZM166.403 409.036C169.275 409.088 170.971 409.105 172.96 409.105C176.662 409.105 180.053 408.759 185.762 407.894C194.499 406.596 196.921 406.389 199.775 407.029C203.287 407.79 204.965 410.16 204.965 415.16C204.965 421.509 201.367 426.613 194.308 431.197C188.824 434.744 183.202 437.183 170.14 442.096L169.708 442.269L165.729 443.757C160.296 445.833 156.335 448.255 149.19 453.376L147.806 454.362C133.931 464.344 125.316 467.925 108.95 467.925C101.424 467.925 99.089 465.434 100.646 460.451C102.065 455.901 106.632 449.587 113.759 441.854C116.081 439.345 118.457 436.888 120.887 434.484C124.928 430.469 133.678 422.315 138.072 418.22C139.604 416.793 140.606 415.859 140.696 415.765C141.457 415.004 142.218 414.33 142.979 413.724C148.411 409.382 152.252 408.794 166.403 409.036ZM365.838 352.742C364.108 342.362 364.281 340.078 367.533 330.667C369.73 324.352 373.45 320.373 391.788 302.9C394.041 300.76 396.267 298.591 398.466 296.396C402.514 292.347 403.223 289.458 400.438 287.919C398.621 286.915 395.819 286.69 390.352 286.777L389.106 286.794C384.003 286.898 382.1 286.811 380.889 286.344C379.024 285.579 377.229 284.653 375.526 283.576L373.121 282.123C370.734 280.704 368.952 279.891 366.928 279.372C359.073 277.417 353.416 283.282 345.735 297.364C345.762 297.311 345.528 297.745 345.15 298.45C344.064 300.47 341.786 304.711 341.029 306.032C339.804 308.339 338.343 310.513 336.67 312.519C326.307 324.006 322.605 334.023 322.605 358.07C322.605 372.429 329.283 379.487 340.614 381.321C344.265 381.909 347.673 381.927 352.621 381.615L353.728 381.546C354.596 381.467 355.468 381.426 356.34 381.425C363.45 381.425 367.879 364.955 365.838 352.742ZM390.594 301.637C371.893 319.439 368.225 323.366 365.907 330.113C362.551 339.801 362.36 342.362 364.125 353.018C366.028 364.298 361.876 379.695 356.34 379.695C355.89 379.695 355.354 379.712 354.627 379.764C353.918 379.806 353.209 379.846 352.499 379.885C347.673 380.197 344.368 380.179 340.891 379.608C330.355 377.913 324.335 371.547 324.335 358.07C324.335 334.421 327.899 324.854 337.95 313.661C339.71 311.566 341.247 309.293 342.535 306.879C343.555 305.08 347.379 297.97 347.258 298.195C354.541 284.822 359.8 279.39 366.512 281.068C368.538 281.623 370.468 282.481 372.239 283.611L374.626 285.047C376.841 286.379 378.415 287.226 380.249 287.936C381.771 288.559 383.709 288.628 389.141 288.524L390.386 288.507C395.49 288.42 398.171 288.645 399.59 289.424C401.009 290.202 400.611 291.811 397.255 295.184C395.317 297.105 393.276 299.094 390.594 301.637ZM354.299 354.939C354.212 354.887 350.891 352.499 349.887 351.6C346.081 348.174 344.663 347.206 342.621 347.655C339.922 348.261 339.04 351.479 339.04 358.07C339.04 371.287 347.846 375.699 354.316 365.941C357.828 360.665 357.689 357.655 354.299 354.939ZM343.365 351.046C343.711 350.96 344.974 351.825 347.569 354.16V354.177C348.763 355.215 352.188 357.689 352.136 357.637C353.987 359.125 354.039 360.129 351.444 364.039C347.119 370.543 342.5 368.225 342.5 358.07C342.5 353.174 343.071 351.098 343.365 351.046Z" fill="#807F7D"/>
<mask id="path-2-inside-1_2_2" fill="white">
<rect width="512" height="512" rx="30"/>
</mask>
<rect width="512" height="512" rx="30" stroke="#262626" stroke-width="64" mask="url(#path-2-inside-1_2_2)"/>
</g>
<defs>
<clipPath id="clip0_2_2">
<rect width="512" height="512" fill="white"/>
</clipPath>
</defs>
</svg>
